<mxfile host="app.diagrams.net" modified="2023-10-31T05:43:11.716Z" agent="Mozilla/5.0 (X11; Linux x86_64; Chromium GOST) AppleWebKit/537.36 (KHTML, like Gecko) Chrome/110.0.0.0 Safari/537.36" version="22.0.8" etag="wyJP-3VmMMP1cAG79xbr" type="github">
  <diagram name="Страница — 1" id="RaGAPnOn0WnEdb-jaaNc">
    <mxGraphModel>
      <root>
        <mxCell id="0" />
        <mxCell id="1" parent="0" />
      </root>
    </mxGraphModel>
  </diagram>
</mxfile>
